<?xml version="1.0" standalone="no"?><!DOCTYPE svg PUBLIC "-//W3C//DTD SVG 1.1//EN" "http://www.w3.org/Graphics/SVG/1.1/DTD/svg11.dtd"><svg t="1758687360253" class="icon" viewBox="0 0 1024 1024" version="1.1" xmlns="http://www.w3.org/2000/svg" p-id="3924" width="16" height="16" xmlns:xlink="http://www.w3.org/1999/xlink"><path d="M174.976 856l135.04-44.992 24 11.008A384.704 384.704 0 0 0 512 864c108.672-3.328 199.168-38.784 271.488-106.496C855.808 689.92 893.312 608 896 512c-2.624-96-40.128-177.792-112.512-245.504C711.168 198.848 620.672 163.328 512 160c-108.672 3.328-199.168 38.848-271.488 106.496C168.192 334.208 130.688 416 128 512c0 34.688 6.016 69.056 18.048 103.04 12.032 33.984 29.696 65.984 52.992 96l22.016 28.992-46.08 115.968z m-46.016 81.984a29.184 29.184 0 0 1-32.512-8.512 30.4 30.4 0 0 1-6.464-33.472l57.984-146.048a433.856 433.856 0 0 1-62.016-113.472A361.472 361.472 0 0 1 64 511.936c2.688-109.952 45.376-205.824 128-287.488C274.624 142.784 381.312 99.968 512 96c130.688 4.032 237.376 46.848 320 128.512C914.624 306.112 957.312 401.984 960 512c-2.624 110.08-45.312 205.824-128 287.488-82.624 81.664-189.312 124.544-320 128.512a464.64 464.64 0 0 1-206.976-48l-176 58.048zM512 563.008a48.384 48.384 0 0 1-44.032-25.472A51.648 51.648 0 0 1 460.992 512c0-8.64 2.304-17.152 7.04-25.536A48.384 48.384 0 0 1 512 460.992 49.472 49.472 0 0 1 563.008 512 49.472 49.472 0 0 1 512 563.008z m192 0a48.384 48.384 0 0 1-44.032-25.472 51.648 51.648 0 0 1-6.976-25.536c0-8.64 2.304-17.152 7.04-25.536A48.384 48.384 0 0 1 704 460.992a49.536 49.536 0 0 1 51.008 51.008 49.472 49.472 0 0 1-51.008 51.008z m-384 0a48.384 48.384 0 0 1-44.032-25.472A51.648 51.648 0 0 1 268.992 512c0-8.64 2.304-17.152 7.04-25.536A48.384 48.384 0 0 1 320 460.992 49.472 49.472 0 0 1 371.008 512 49.472 49.472 0 0 1 320 563.008z" p-id="3925"></path></svg>